Coordinates
version=1
nRows=15
nColumns=26
inDegrees=yes

Units are S.I. units (second, meters, Newtons, ...)
If the header above contains a line with 'inDegrees', this indicates whether rotational values are in degrees (yes) or radians (no).

endheader
time	pelvis_tilt	pelvis_list	pelvis_rotation	pelvis_tx	pelvis_ty	pelvis_tz	hip_flexion_r	hip_adduction_r	hip_rotation_r	knee_angle_r	knee_angle_r_beta	ankle_angle_r	subtalar_angle_r	mtp_angle_r	hip_flexion_l	hip_adduction_l	hip_rotation_l	knee_angle_l	knee_angle_l_beta	ankle_angle_l	subtalar_angle_l	mtp_angle_l	lumbar_extension	lumbar_bending	lumbar_rotation
      2.50500000	     -5.16522230	      3.59730461	     -1.68142378	     -0.22747736	      0.86094638	     -0.54578274	     25.81438972	    -14.01399279	    -15.58377833	     52.25364942	      0.91199823	     14.76500502	      0.00000000	      0.00000000	     26.98095468	     -5.97405357	     -1.16261250	     47.74460585	      0.83330057	      7.84346734	      0.00000000	      0.00000000	     -5.66382238	     -1.74757337	      5.44332041
      2.51000000	     -5.26369736	      3.67205616	     -1.66206607	     -0.22726659	      0.86568223	     -0.54555490	     25.37737472	    -13.83476794	    -15.49352788	     51.03377771	      0.89070745	     13.94961479	      0.00000000	      0.00000000	     26.44002472	     -5.72421701	     -0.87280594	     46.39740874	      0.80978755	      7.03647267	      0.00000000	      0.00000000	     -5.40887485	     -1.83016351	      5.43093663
      2.51500000	     -5.37768194	      3.72216614	     -1.62534890	     -0.22707568	      0.87055633	     -0.54534178	     24.91624475	    -13.61833295	    -15.37630234	     49.74303981	      0.86817982	     13.09199317	      0.00000000	      0.00000000	     25.89960715	     -5.49196826	     -0.51303792	     45.00339444	      0.78545741	      6.16798495	      0.00000000	      0.00000000	     -5.14162858	     -1.88396558	      5.40690077
      2.52000000	     -5.50953414	      3.74953576	     -1.56918473	     -0.22690450	      0.87553699	     -0.54514193	     24.43305864	    -13.36892771	    -15.24075540	     48.38477601	      0.84447365	     12.18517989	      0.00000000	      0.00000000	     25.36567001	     -5.28069610	     -0.09498549	     43.57205671	      0.76047585	      5.24453530	      0.00000000	      0.00000000	     -4.85908430	     -1.91181549	      5.36975070
      2.52500000	     -5.66180566	      3.75575627	     -1.49148545	     -0.22674486	      0.88059263	     -0.54495647	     23.93101029	    -13.09222395	    -15.10101892	     46.96446459	      0.81968454	     11.23402330	      0.00000000	      0.00000000	     24.84431857	     -5.09360777	      0.36730929	     42.11366992	      0.73502220	      4.27286622	      0.00000000	      0.00000000	     -4.55595781	     -1.91580251	      5.31880246
      2.53000000	     -5.83343849	      3.74286290	     -1.39352251	     -0.22659358	      0.88569708	     -0.54478219	     23.41156063	    -12.79185241	    -14.96520095	     45.48725177	      0.79390231	     10.24044020	      0.00000000	      0.00000000	     24.33629983	     -4.93340658	      0.85611000	     40.63521532	      0.70921830	      3.26444401	      0.00000000	      0.00000000	     -4.23179685	     -1.89950367	      5.25668711
      2.53500000	     -6.02181331	      3.71363943	     -1.27476572	     -0.22644787	      0.89082883	     -0.54462116	     22.87630455	    -12.47449318	    -14.84338956	     43.95947078	      0.76723750	      9.21913828	      0.00000000	      0.00000000	     23.84358955	     -4.79917334	      1.36018061	     39.14554462	      0.68321864	      2.21653729	      0.00000000	      0.00000000	     -3.89069683	     -1.86715886	      5.18356089
      2.54000000	     -6.22272938	      3.66908736	     -1.13568873	     -0.22630426	      0.89596623	     -0.54447032	     22.32509028	    -12.14399303	    -14.74454440	     42.38738664	      0.73979946	      8.16204019	      0.00000000	      0.00000000	     23.36738857	     -4.69306150	      1.86529397	     37.65624716	      0.65722550	      1.13477391	      0.00000000	      0.00000000	     -3.53636850	     -1.82028468	      5.09526575
      2.54500000	     -6.43002872	      3.61223531	     -0.97744007	     -0.22614881	      0.90109368	     -0.54433004	     21.75774272	    -11.80905333	    -14.68143137	     40.78222175	      0.71178405	      7.07974988	      0.00000000	      0.00000000	     22.90550516	     -4.61441247	      2.35565093	     36.17646143	      0.63139836	      0.02554650	      0.00000000	      0.00000000	     -3.17354277	     -1.76402101	      4.99004737
      2.55000000	     -6.64037898	      3.54526302	     -0.80507208	     -0.22597956	      0.90619541	     -0.54419529	     21.18053601	    -11.47116210	    -14.65216192	     39.15866060	      0.68344756	      5.97937877	      0.00000000	      0.00000000	     22.45837547	     -4.56186561	      2.81796252	     34.71366056	      0.60586767	     -1.09754133	      0.00000000	      0.00000000	     -2.80505082	     -1.70030103	      4.87096023
      2.55500000	     -6.84572099	      3.47221136	     -0.62303896	     -0.22578427	      0.91126208	     -0.54406216	     20.59259498	    -11.13706402	    -14.66108056	     37.52852622	      0.65499635	      4.86898636	      0.00000000	      0.00000000	     22.01937946	     -4.53247499	      3.23757968	     33.27093167	      0.58068730	     -2.23571641	      0.00000000	      0.00000000	     -2.43939274	     -1.63279403	      4.74292124
      2.56000000	     -7.04056643	      3.39624003	     -0.43895772	     -0.22555344	      0.91627862	     -0.54392228	     19.99791412	    -10.80923866	    -14.70434763	     35.90832863	      0.62671856	      3.74966588	      0.00000000	      0.00000000	     21.58591262	     -4.52571604	      3.59702008	     31.85590457	      0.55599042	     -3.37932665	      0.00000000	      0.00000000	     -2.07775184	     -1.56475269	      4.61422405
      2.56500000	     -7.21957939	      3.32440706	     -0.25608370	     -0.22527801	      0.92123265	     -0.54377762	     19.40073511	    -10.49962045	    -14.78808835	     34.31715225	      0.59894730	      2.62316734	      0.00000000	      0.00000000	     21.15336111	     -4.53111398	      3.89161796	     30.47098494	      0.53181901	     -4.53160481	      0.00000000	      0.00000000	     -1.72505113	     -1.50380466	      4.48965867
      2.57000000	     -7.38081805	      3.25983987	     -0.08407766	     -0.22496315	      0.92610695	     -0.54361730	     18.80847411	    -10.20506617	    -14.89528717	     32.76796888	      0.57190895	      1.50911466	      0.00000000	      0.00000000	     20.72118207	     -4.54509089	      4.11400776	     29.12212665	      0.50827700	     -5.68436480	      0.00000000	      0.00000000	     -1.38455132	     -1.45200128	      4.38018108
      2.57500000	     -7.51789175	      3.20870126	      0.07308512	     -0.22460388	      0.93088688	     -0.54344112	     18.22024157	     -9.93534729	    -15.02965819	     31.27237070	      0.54580583	      0.41760014	      0.00000000	      0.00000000	     20.28242279	     -4.55867685	      4.26453871	     27.81267178	      0.48542270	     -6.83800283	      0.00000000	      0.00000000	     -1.06415955	     -1.41608008	      4.29259134
